<svg width="172" height="40" viewBox="0 0 172 40" fill="none" xmlns="http://www.w3.org/2000/svg">
<g clip-path="url(#clip0_6_12)">
<mask id="mask0_6_12" style="mask-type:luminance" maskUnits="userSpaceOnUse" x="0" y="0" width="172" height="40">
<path d="M172 0H0V40H172V0Z" fill="white"/>
</mask>
<g mask="url(#mask0_6_12)">
<path d="M8.36098 2.71023C9.89089 0.118528 13.2793 -0.769454 15.9291 0.726869C18.579 2.22319 19.4869 5.53719 17.957 8.1289L10.3391 21.0338C8.80932 23.6255 5.42092 24.5135 2.77106 23.0171C0.121192 21.5208 -0.786721 18.2069 0.743176 15.6151L8.36098 2.71023Z" fill="#9B13F0"/>
<path d="M37.149 18.9662C38.6789 16.3745 42.0673 15.4865 44.7172 16.9829C47.367 18.4792 48.2749 21.7931 46.745 24.3848L39.1272 37.2898C37.5973 39.8815 34.2089 40.7695 31.5591 39.2731C28.9091 37.7768 28.0013 34.4628 29.5312 31.8711L37.149 18.9662Z" fill="#01787C"/>
<path d="M27.3256 3.09526C28.8555 0.503563 32.2439 -0.384418 34.8938 1.1119C37.5436 2.60823 38.4515 5.92223 36.9217 8.51396L20.1624 36.9047C18.6325 39.4964 15.2441 40.3844 12.5942 38.8881C9.94435 37.3918 9.03648 34.0778 10.5664 31.486L27.3256 3.09526Z" fill="#0B9064"/>
<path d="M27.3256 3.09526C28.8555 0.503563 32.2439 -0.384418 34.8938 1.1119C37.5436 2.60823 38.4515 5.92223 36.9217 8.51396L27.9188 23.7652C26.3889 26.3569 23.0005 27.2449 20.3506 25.7486C17.7007 24.2522 16.7928 20.9382 18.3227 18.3465L27.3256 3.09526Z" fill="#19B07E"/>
<path d="M46.745 24.3848C45.2151 26.9766 41.8267 27.8645 39.1769 26.3682C36.527 24.8719 35.6191 21.5579 37.149 18.9662C38.6789 16.3745 42.0673 15.4865 44.7172 16.9829C47.367 18.4792 48.2749 21.7931 46.745 24.3848Z" fill="#19B0AB"/>
<path d="M67.5256 29.5257V11.2363H62.7608V9.00882H74.8976V11.2363H70.1328V29.5257H67.5256Z" fill="white"/>
<path d="M89.4335 29.5257C89.1731 29.5257 88.8834 29.4476 88.5638 29.2913C88.2644 29.1349 88.0048 28.92 87.7849 28.6464C87.3257 29.2327 86.7164 29.5257 85.957 29.5257H83.2902C81.7714 29.5257 80.6626 29.2327 79.9634 28.6464C79.2841 28.0407 78.9444 27.0149 78.9444 25.5689V24.9827C78.9444 21.954 80.4029 20.4397 83.3194 20.4397H87.0361V18.9741C87.0361 18.3684 86.8462 17.8994 86.4665 17.5673C86.0868 17.2351 85.527 17.069 84.7879 17.069H80.1432V14.8708H84.4885C86.2264 14.8708 87.505 15.242 88.3244 15.9846C89.1633 16.7271 89.5828 17.919 89.5828 19.5603V26.5947C89.5828 26.8878 89.6931 27.1126 89.913 27.2689C90.1523 27.4056 90.5418 27.474 91.0813 27.474V29.5257H89.4335ZM85.6576 27.3275C86.2564 27.3275 86.6361 27.1907 86.7959 26.9171C86.9557 26.6436 87.0361 26.2918 87.0361 25.862V22.6379H83.2902C82.7701 22.6379 82.3409 22.804 82.001 23.1362C81.6619 23.4683 81.4915 23.8885 81.4915 24.3965V25.862C81.4915 26.37 81.6116 26.7413 81.8517 26.9758C82.0911 27.2102 82.4708 27.3275 82.99 27.3275H85.6576Z" fill="white"/>
<path d="M98.1252 14.8708V15.5742C98.7442 15.1052 99.5434 14.8708 100.523 14.8708H101.901C103.519 14.8708 104.718 15.242 105.497 15.9846C106.296 16.7271 106.696 17.919 106.696 19.5603V29.5257H104.148V18.9741C104.148 18.3879 103.968 17.9287 103.609 17.5966C103.27 17.2449 102.8 17.069 102.2 17.069H100.222C99.5636 17.069 99.0736 17.2449 98.754 17.5966C98.4343 17.9287 98.2745 18.2903 98.2745 18.6811V29.5257H95.7277V14.8708H98.1252Z" fill="white"/>
<path d="M122.01 29.5257H112.481V27.1809L119.493 17.0397H113.08V14.8708H122.31V17.4793L115.358 27.3568H122.01V29.5257Z" fill="white"/>
<path d="M139.153 24.8362C139.153 26.4775 138.733 27.6695 137.895 28.4119C137.075 29.1544 135.796 29.5257 134.059 29.5257H133.07C131.332 29.5257 130.043 29.1544 129.204 28.4119C128.385 27.6695 127.975 26.4775 127.975 24.8362V19.5603C127.975 17.919 128.385 16.7271 129.204 15.9846C130.043 15.242 131.332 14.8708 133.07 14.8708H134.059C135.796 14.8708 137.075 15.242 137.895 15.9846C138.733 16.7271 139.153 17.919 139.153 19.5603V24.8362ZM136.606 18.9741C136.606 18.3684 136.416 17.8994 136.037 17.5673C135.657 17.2351 135.097 17.069 134.358 17.069H132.77C132.031 17.069 131.471 17.2351 131.092 17.5673C130.712 17.8994 130.522 18.3684 130.522 18.9741V25.4224C130.522 26.0281 130.712 26.4971 131.092 26.8292C131.471 27.1614 132.031 27.3275 132.77 27.3275H134.358C135.097 27.3275 135.657 27.1614 136.037 26.8292C136.416 26.4971 136.606 26.0281 136.606 25.4224V18.9741Z" fill="white"/>
<path d="M146.856 27.3275V17.069H144.668V14.8708H149.253V15.6621C149.913 15.1345 150.712 14.8708 151.65 14.8708H154.738V17.2156H151.351C150.712 17.2156 150.232 17.4207 149.913 17.8311C149.593 18.2219 149.423 18.6224 149.403 19.0327V27.3275H152.669V29.5257H144.668V27.3275H146.856Z" fill="white"/>
<path d="M170.351 29.5257C170.092 29.5257 169.802 29.4476 169.482 29.2913C169.183 29.1349 168.923 28.92 168.704 28.6464C168.244 29.2327 167.635 29.5257 166.876 29.5257H164.208C162.69 29.5257 161.581 29.2327 160.882 28.6464C160.203 28.0407 159.863 27.0149 159.863 25.5689V24.9827C159.863 21.954 161.321 20.4397 164.238 20.4397H167.955V18.9741C167.955 18.3684 167.765 17.8994 167.385 17.5673C167.006 17.2351 166.446 17.069 165.707 17.069H161.062V14.8708H165.407C167.145 14.8708 168.424 15.242 169.243 15.9846C170.082 16.7271 170.502 17.919 170.502 19.5603V26.5947C170.502 26.8878 170.612 27.1126 170.831 27.2689C171.071 27.4056 171.46 27.474 172 27.474V29.5257H170.351ZM166.576 27.3275C167.175 27.3275 167.555 27.1907 167.715 26.9171C167.874 26.6436 167.955 26.2918 167.955 25.862V22.6379H164.208C163.689 22.6379 163.26 22.804 162.92 23.1362C162.58 23.4683 162.41 23.8885 162.41 24.3965V25.862C162.41 26.37 162.53 26.7413 162.77 26.9758C163.01 27.2102 163.389 27.3275 163.909 27.3275H166.576Z" fill="white"/>
</g>
</g>
<defs>
<clipPath id="clip0_6_12">
<rect width="172" height="40" fill="white"/>
</clipPath>
</defs>
</svg>
