<svg xmlns="http://www.w3.org/2000/svg" width="24" height="25" viewBox="0 0 24 25" fill="none">
  <path d="M17 2.5C18.6569 2.5 20 3.84315 20 5.5V13.5H15C14.3212 13.5 13.7113 13.4975 13.2207 13.5635C12.7014 13.6333 12.1688 13.796 11.7324 14.2324C11.296 14.6688 11.1333 15.2014 11.0635 15.7207C10.9975 16.2113 11 16.8212 11 17.5V22.5H7C5.34315 22.5 4 21.1569 4 19.5V5.5C4 3.84315 5.34315 2.5 7 2.5H17ZM19.7266 15.5C19.5792 15.8234 19.3772 16.1228 19.1211 16.3789L13.8789 21.6211C13.6228 21.8772 13.3234 22.0792 13 22.2266V17.5C13 16.7646 13.002 16.3137 13.0459 15.9873C13.0859 15.6898 13.1436 15.6494 13.1465 15.6465C13.1494 15.6436 13.1897 15.5859 13.4873 15.5459C13.8137 15.502 14.2646 15.5 15 15.5H19.7266Z" fill="#18AFAB"/>
</svg>