<svg width="24" height="25" viewBox="0 0 24 25" fill="none" xmlns="http://www.w3.org/2000/svg">
<path d="M8.01971 4.34291C8.67826 4.34291 9.28501 4.70006 9.60465 5.27583L10.3397 6.59997C10.6601 7.17698 10.6751 7.87486 10.38 8.46514L9.43735 10.3504C9.43735 10.3504 9.77884 12.1061 11.2081 13.5353C12.6373 14.9645 14.3871 15.3001 14.3871 15.3001L16.2716 14.3579C16.8623 14.0625 17.5607 14.0778 18.1379 14.3987L19.4684 15.1384C20.0437 15.4583 20.4005 16.0648 20.4005 16.723C20.4005 19.0652 18.2177 20.7541 16.0445 19.8808C13.7341 18.9523 10.9882 17.5581 9.08674 15.6566C7.18516 13.755 5.79089 11.0089 4.86237 8.69831C3.98916 6.5254 5.67791 4.34291 8.01971 4.34291Z" fill="#18AFAB" stroke="#18AFAB" stroke-width="2" stroke-linejoin="round"/>
</svg>
