<svg width="60" height="60" viewBox="0 0 60 60" fill="none" xmlns="http://www.w3.org/2000/svg">
<rect width="60" height="60" rx="30" fill="#252331"/>
<path d="M37 26V35.5C37 36.6 36.1 37.5 35 37.5H29.5" stroke="white" stroke-width="1.5" stroke-linecap="round" stroke-linejoin="round"/>
<path d="M32 40L29 37.5L32 35" stroke="white" stroke-width="1.5" stroke-linecap="round" stroke-linejoin="round"/>
<path d="M37 20C38.6569 20 40 21.3431 40 23C40 24.6569 38.6569 26 37 26C35.3431 26 34 24.6569 34 23C34 21.3431 35.3431 20 37 20Z" stroke="white" stroke-width="1.5" stroke-linecap="round" stroke-linejoin="round"/>
<path d="M23 30V24.5C23 23.4 23.9 22.5 25 22.5H30.5" stroke="white" stroke-width="1.5" stroke-linecap="round" stroke-linejoin="round"/>
<path d="M28 20L31 22.5L28 25" stroke="white" stroke-width="1.5" stroke-linecap="round" stroke-linejoin="round"/>
<path d="M23 34C24.6569 34 26 35.3431 26 37C26 38.6569 24.6569 40 23 40C21.3431 40 20 38.6569 20 37C20 35.3431 21.3431 34 23 34Z" stroke="white" stroke-width="1.5" stroke-linecap="round" stroke-linejoin="round"/>
</svg>
