<svg width="60" height="60" viewBox="0 0 60 60" fill="none" xmlns="http://www.w3.org/2000/svg">
<rect width="60" height="60" rx="30" fill="#7F9496"/>
<path d="M26.97 20C21.97 20 19.97 22 19.97 27V33C19.97 38 21.97 40 26.97 40H32.97C37.97 40 39.97 38 39.97 33V27C39.97 22 37.97 20 32.97 20H30.97" stroke="white" stroke-width="1.5" stroke-linecap="round" stroke-linejoin="round"/>
<path d="M19.97 30.7001L25.97 30.6801C26.72 30.6801 27.56 31.2501 27.84 31.9501L28.98 34.8301C29.24 35.4801 29.65 35.4801 29.91 34.8301L32.2 29.0201C32.42 28.4601 32.83 28.4401 33.11 28.9701L34.15 30.9401C34.46 31.5301 35.26 32.0101 35.92 32.0101H39.98" stroke="white" stroke-width="1.5" stroke-linecap="round" stroke-linejoin="round"/>
</svg>
