<svg width="80" height="80" viewBox="0 0 80 80" fill="none" xmlns="http://www.w3.org/2000/svg">
<rect width="80" height="80" rx="40" fill="#3B3946"/>
<path d="M42.0793 33.0599C44.0481 33.9221 45.4369 35.4445 46.2642 37.4109C46.785 39.2628 46.716 41.3228 45.8125 43.0372C44.5826 44.909 43.1703 46.2145 40.9848 46.8427C38.6688 47.1312 36.925 46.8307 35.0487 45.4181C33.578 44.1562 32.7986 42.4864 32.5834 40.5737C32.5135 38.4265 32.9266 36.8633 34.0099 35.03C34.8816 34.2042 35.8986 33.6447 36.9483 33.071C37.1068 32.9804 37.2654 32.8898 37.4287 32.7965C38.8703 32.1811 40.6483 32.5829 42.0793 33.0599ZM35.3307 35.861C34.0631 37.4622 33.7428 38.6658 33.9775 40.6841C34.3041 42.5591 35.0337 43.9692 36.5624 45.1361C37.9447 45.9484 39.4376 45.8659 40.9848 45.6555C42.678 45.1812 43.618 44.3449 44.5094 42.8498C44.6 42.6787 44.6906 42.5076 44.7839 42.3313C44.8724 42.178 44.9608 42.0246 45.052 41.8666C45.5529 40.6918 45.4325 39.327 45.0594 38.1297C44.2896 36.4346 43.163 35.2396 41.5042 34.3918C39.1549 33.9772 37.0183 34.043 35.3307 35.861Z" fill="#F5F5F6"/>
<path d="M38.1056 22.1631C38.9685 21.3257 39.8194 21.2692 40.9845 21.4366C41.6518 21.8624 42.0554 22.1535 42.4093 22.8614C42.5473 24.5444 42.5472 24.5444 41.964 25.458C41.4596 25.9476 41.4594 25.9482 40.9845 26.1856C40.829 26.7851 40.829 26.7854 40.7472 27.3721C40.9283 27.3525 41.1095 27.3337 41.2961 27.3135C41.9342 27.3729 41.9343 27.3728 42.3498 27.7735C42.666 28.3584 42.7929 28.8539 42.884 29.5098C43.3477 29.6257 43.8118 29.7415 44.2756 29.8575C44.6164 29.9427 44.9558 30.0345 45.2931 30.1328C45.893 30.2541 46.1486 30.0228 46.6838 29.7471C47.4429 29.6522 47.7508 29.662 48.383 30.1075C48.5274 30.2234 48.6717 30.3395 48.8205 30.459C48.9836 30.3247 49.1466 30.1902 49.3146 30.0518C49.5285 29.8777 49.7427 29.7038 49.9631 29.5244C50.1752 29.3509 50.3871 29.1769 50.6056 28.9981C51.1946 28.5594 51.1951 28.5597 51.9074 28.3223C51.8185 27.0486 51.4333 26.5419 50.4826 25.71C50.2453 25.4727 50.2452 25.4723 50.1711 24.5821C50.1782 23.789 50.242 23.5788 50.6906 22.876C51.4571 22.1321 52.0139 22.0557 53.0851 22.0635C53.897 22.2066 54.2659 22.711 54.757 23.336C55.1249 24.072 55.0631 24.6606 54.9943 25.4727C54.568 26.1264 54.2692 26.5476 53.5695 26.8975C53.5646 27.1766 53.5599 27.4557 53.5549 27.7432C53.4581 28.7412 53.0776 29.1475 52.3381 29.8067C51.5149 30.4747 50.6733 31.0911 49.7707 31.6465C49.8147 31.8863 49.8581 32.1261 49.9035 32.3731C50.0073 33.3078 50.008 33.3086 49.8449 34.1094C49.7432 35.2885 50.0347 36.1431 50.7199 37.1075C51.2786 37.4859 51.7235 37.6304 52.382 37.8203V39.2442H54.9943L55.4689 38.0577C56.427 37.419 57.1936 37.3969 58.3185 37.5821C59.0455 38.042 59.0452 38.0427 59.505 38.7696C59.6689 39.5185 59.6784 40.1586 59.505 40.9063C58.987 41.5606 58.5857 41.9597 57.8429 42.3311C56.9238 42.4332 56.5316 42.4061 55.7511 41.8858C55.2317 41.3812 55.2317 41.3812 54.9943 40.9063C54.3803 40.7951 54.3798 40.795 53.673 40.7578C53.4329 40.7401 53.1928 40.7224 52.9455 40.7041C52.7597 40.6925 52.5734 40.681 52.382 40.669C52.359 40.8587 52.3363 41.0487 52.3127 41.2442C52.2573 41.4462 52.2018 41.6483 52.1447 41.8565C51.7335 42.0116 51.322 42.1661 50.9084 42.3145C50.0534 42.8249 49.776 43.7808 49.5324 44.7061C49.5463 45.3505 49.5472 45.3505 49.7707 45.8926C49.9726 46.7203 50.0017 47.215 49.7707 48.0303C50.0077 48.194 50.2452 48.3578 50.4894 48.5264C52.9683 50.3066 52.9683 50.3069 53.3263 51.2578C53.3467 51.8142 53.3463 51.8147 53.3175 52.334C53.2827 52.8651 53.2837 52.8651 53.9259 53.3575C54.1217 53.4798 54.3171 53.6025 54.5187 53.7285C54.8925 54.4762 54.8396 55.0392 54.757 55.8653C54.3362 56.5719 53.8411 57.1541 53.0949 57.5274C52.1021 57.621 51.5967 57.6341 50.7502 57.0821C50.0999 56.4318 50.0184 56.2433 49.9484 55.3164C50.0113 54.3885 50.1332 53.9664 50.7199 53.2539C51.2393 53.061 51.2397 53.0612 51.6701 53.0166V51.3545C51.5368 51.294 51.4031 51.2333 51.2658 51.1709C50.6506 50.8424 50.1378 50.4521 49.592 50.0186C49.4022 49.8686 49.2123 49.719 49.0168 49.5645C48.8735 49.45 48.7308 49.3348 48.5832 49.2168C48.4436 49.3356 48.3041 49.4548 48.1603 49.5772C47.6335 49.9296 47.633 49.9295 46.8019 49.8702C45.9712 49.6921 45.9712 49.6916 45.5197 49.5489C44.5027 49.3557 43.5321 49.663 42.6467 50.167C42.2381 50.8521 42.0629 51.5202 41.9347 52.3037H40.5099V53.7285C40.652 53.7432 40.7943 53.7583 40.9406 53.7735C41.4596 53.9663 41.4597 53.9663 41.8752 54.4707C42.2452 55.3219 42.2707 55.8945 42.172 56.8155C41.8705 57.4939 41.6298 57.8797 41.0295 58.3145C40.3148 58.5391 39.8326 58.5822 39.0851 58.4776C38.3907 58.0441 37.7948 57.559 37.423 56.8155C37.3294 55.8227 37.3163 55.3173 37.8683 54.4707C38.3729 53.9662 38.373 53.966 38.8478 53.7285C39.0035 53.1285 39.0033 53.1282 39.0851 52.5411H37.8976C37.8313 52.3952 37.7648 52.2489 37.6965 52.0987C37.1989 51.0956 36.8748 50.5073 35.9093 49.8995C34.8024 49.6323 33.9513 49.7301 32.882 50.1075C32.1978 50.1986 31.8147 49.8132 31.2502 49.4541C30.7754 49.7699 30.3069 50.092 29.84 50.419C29.6391 50.551 29.6387 50.5509 29.4338 50.6856C28.642 51.2498 28.4134 51.5347 28.1916 52.4961C28.1821 52.7461 28.173 52.9964 28.1633 53.2539C28.305 53.2686 28.4469 53.2828 28.5929 53.2979C29.1123 53.4908 29.113 53.4914 29.5285 54.0108C29.8753 54.7912 29.9311 55.2567 29.8254 56.1026C29.526 56.7612 29.2764 57.1673 28.6974 57.6016C27.9208 57.8389 27.3089 57.8497 26.5011 57.7647C25.8475 57.3384 25.4262 57.0404 25.0763 56.3409C24.9384 54.6575 24.9385 54.6569 25.5216 53.7432C26.026 53.2537 26.0263 53.254 26.5011 53.0166C26.5061 52.7 26.4981 52.3828 26.4855 52.0664C26.5533 51.2018 26.6999 50.9199 27.3088 50.2793C28.1975 49.5588 29.1111 48.902 30.0627 48.2676C30.0137 48.0131 29.9647 47.7583 29.9142 47.4961C29.8209 46.5627 29.9002 46.4298 30.3 45.6553C30.2563 44.9572 30.2564 44.9568 30.0627 44.2305C30.0186 43.9859 29.9742 43.7413 29.9289 43.4893C29.4352 42.5019 28.6843 42.2505 27.6877 41.8565V40.4317C25.9153 40.405 25.9152 40.4052 24.4679 41.2627C24.3553 41.4586 24.2422 41.6547 24.1261 41.8565C23.3578 42.2406 22.5827 42.2272 21.7521 42.0938C21.0398 41.6486 21.0395 41.6483 20.5646 40.9063C20.354 39.9255 20.2958 38.9966 20.8117 38.1065C21.3168 37.6028 21.8192 37.3609 22.5265 37.295C23.4485 37.3529 23.9899 37.4791 24.7345 38.042C25.0758 38.5317 25.0763 38.5322 25.0763 39.0069H27.6877V37.8203C28.3236 37.1609 28.9322 36.9942 29.8254 36.8702C29.9064 36.3956 29.9849 35.9205 30.0627 35.4453C30.1116 35.1811 30.1607 34.9168 30.2111 34.6446C30.3374 33.4236 30.2162 32.3446 29.8254 31.1719C29.2911 30.6846 29.2907 30.6844 28.6525 30.2071C27.4775 29.2992 27.4777 29.2988 26.9758 28.7969C26.9513 28.4933 26.9268 28.1898 26.9015 27.877C26.8219 27.0481 26.7874 26.9446 26.1447 26.334C25.9488 26.2067 25.7528 26.0785 25.5509 25.9473C25.171 25.1872 25.1951 24.3981 25.3136 23.5733C25.7395 22.9061 26.0306 22.5024 26.7384 22.1485C28.4318 21.9819 28.4316 21.9825 29.3351 22.7129C30.0455 23.6171 30.1529 24.0851 30.0627 25.2354C29.7659 25.9032 29.7653 25.9035 29.3498 26.4229C28.8308 26.6156 28.8306 26.6157 28.4006 26.6602C28.4499 27.6943 28.5097 28.1864 29.2326 28.9522C29.472 29.1311 29.7115 29.3099 29.9582 29.4942C30.1984 29.6775 30.4392 29.861 30.6867 30.0498C30.8725 30.1848 31.0587 30.3199 31.2502 30.459C31.3945 30.3844 31.539 30.3093 31.6877 30.2325C32.2693 29.9501 32.7428 29.8115 33.3869 29.7471L34.3361 30.2217C34.908 30.1948 34.9084 30.1949 35.5236 29.9844C35.8026 29.9012 36.0818 29.8182 36.3693 29.7325C37.427 29.1363 37.7136 28.4763 38.1359 27.3721H39.3224V25.9473C39.1099 25.918 39.1096 25.9186 38.8927 25.8887C38.1842 25.6458 38.0028 25.4286 37.6603 24.7608C37.534 23.6239 37.4883 23.1303 38.1056 22.1631ZM39.0851 55.3907C38.6103 55.8655 38.6101 55.8657 38.5656 56.5928C38.6101 57.2901 38.6105 57.2901 38.8478 57.5274C39.5602 57.5571 39.5603 57.5571 40.2726 57.5274C40.6154 57.1846 40.6153 57.1841 40.7472 56.1026C40.1829 55.5384 39.8679 55.4689 39.0851 55.3907ZM26.8566 54.6192C26.2634 54.6785 26.263 54.6786 25.7883 55.1534C25.7289 55.7468 25.7289 55.7473 25.7883 56.3409C26.263 56.8156 26.2634 56.8157 26.8566 56.875C27.4502 56.8157 27.4511 56.8157 27.9259 56.3409C27.9853 55.7473 27.9853 55.7468 27.9259 55.1534C27.4511 54.6785 27.4502 54.6785 26.8566 54.6192ZM52.2638 54.6192C51.6702 54.6785 51.6694 54.6785 51.1945 55.1534C51.1352 55.7468 51.1351 55.7473 51.1945 56.3409C51.6694 56.8157 51.6702 56.8157 52.2638 56.875C52.857 56.8157 52.8575 56.8156 53.3322 56.3409C53.3916 55.7473 53.3915 55.7468 53.3322 55.1534C52.8574 54.6786 52.857 54.6785 52.2638 54.6192ZM38.0763 29.3164C37.4418 30.4371 36.4528 30.76 35.3029 31.2305C34.1759 31.5058 33.3068 31.2105 32.1994 30.9336C31.7293 31.4821 31.2589 32.0307 30.7746 32.5957C30.9313 32.9092 31.0887 33.223 31.2502 33.5459C31.1803 34.7329 30.8466 35.7801 30.4474 36.8897C30.2756 37.3406 30.2756 37.341 30.3 37.8203C29.6732 37.977 29.0463 38.1335 28.4006 38.295V40.9063C28.6503 40.965 28.9001 41.0245 29.1574 41.085C30.0747 41.4812 30.3638 42.0315 30.7746 42.9248C31.2686 44.2311 31.2347 45.1609 31.0383 46.5186C30.9611 47.1432 30.9613 47.1435 31.4279 47.8516C32.2875 48.3144 32.4761 48.2824 33.4015 48.1485C35.0165 47.9206 36.2978 48.3321 37.6603 49.2168C38.0922 49.7923 38.2055 50.1663 38.3732 50.8789H40.7472C41.2698 49.9758 41.2705 49.9757 41.4601 48.9795C45.1889 47.7866 45.1891 47.7868 46.9211 48.5049C47.4433 48.0644 47.9273 47.6219 48.3459 47.0801C48.3649 46.4631 48.3651 46.4627 48.1086 45.8926C47.698 44.5479 48.1693 43.5723 48.675 42.3116C49.06 41.6152 49.2434 41.3709 49.9631 41.0703C50.2128 41.0165 50.4626 40.9618 50.7199 40.9063V38.295C50.4605 38.2215 50.2011 38.148 49.9338 38.0723C49.3272 37.8192 49.1065 37.6777 48.8058 37.084C48.6896 36.7117 48.5834 36.3356 48.4894 35.9571C48.3563 35.3818 48.3557 35.382 47.8703 34.7334C47.9413 34.0659 48.0498 33.467 48.2804 32.836C48.4031 32.342 48.403 32.3418 48.0568 31.9541C47.9219 31.833 47.7866 31.7117 47.6476 31.5869C47.5134 31.4634 47.3797 31.3392 47.2414 31.2119C47.1358 31.1201 47.0299 31.0282 46.9211 30.9336C46.7155 31.0168 46.5098 31.1008 46.298 31.1866C44.726 31.6232 43.452 30.9983 42.0226 30.335C41.4597 29.9844 41.4594 29.9838 41.0588 29.1973C41.0221 28.8819 41.022 28.8817 40.9845 28.5596H38.3732C38.2263 28.9342 38.2262 28.9343 38.0763 29.3164ZM21.8556 38.7256C21.1805 38.7775 21.0574 38.7635 21.008 39.4375C21.0086 39.6141 21.0093 39.7857 21.0099 39.9571C21.0081 40.4761 21.0077 40.4764 21.0392 40.9063C21.2766 41.1437 21.2771 41.144 21.8556 41.1885C22.4641 41.144 22.4647 41.1439 22.9396 40.669C22.999 39.9569 22.999 39.9564 22.9396 39.2442C22.4647 38.7693 22.4641 38.7701 21.8556 38.7256ZM56.9972 38.7256C56.3221 38.7776 56.199 38.7635 56.1496 39.4375C56.1502 39.6141 56.1509 39.7857 56.1515 39.9571C56.1497 40.4761 56.1493 40.4764 56.1808 40.9063C56.4183 41.1437 56.4186 41.144 56.9972 41.1885C57.6056 41.144 57.6055 41.1437 58.0802 40.669C58.1396 39.9568 58.1396 39.9564 58.0802 39.2442C57.6058 38.7697 57.6055 38.7701 56.9972 38.7256ZM53.0949 23.336C52.419 23.1627 52.0698 23.0176 51.4328 23.336C51.2547 24.0335 51.2539 24.0336 51.1945 24.7608C51.356 24.9222 51.5134 25.0787 51.6701 25.2354C52.3969 25.2799 52.3975 25.2799 53.0949 25.2354C53.3321 24.9982 53.3318 24.9973 53.3615 24.2852C53.3318 23.5736 53.332 23.5731 53.0949 23.336ZM27.6877 23.336C27.0118 23.1627 26.6627 23.0174 26.0256 23.336C25.8475 24.0333 25.8476 24.0337 25.7883 24.7608C25.9497 24.9222 26.1071 25.0787 26.2638 25.2354C27.0053 25.265 27.0055 25.265 27.6877 25.2354C27.778 24.6831 27.8577 24.1288 27.9259 23.5733C27.8452 23.4925 27.766 23.4143 27.6877 23.336ZM39.5451 22.3418C38.8482 22.3863 38.8476 22.386 38.6105 22.6231C38.5808 23.3353 38.5809 23.3359 38.6105 24.0479C38.9535 24.3909 38.9536 24.3916 40.0353 24.5235C40.5997 23.9591 40.669 23.644 40.7472 22.8614C40.2724 22.3865 40.2723 22.3864 39.5451 22.3418Z" fill="white"/>
</svg>
