<svg width="81" height="80" viewBox="0 0 81 80" fill="none" xmlns="http://www.w3.org/2000/svg">
<rect x="0.666626" width="80" height="80" rx="40" fill="#3B3946"/>
<path d="M55.3385 29.0483C55.6622 29.0498 55.6622 29.0498 55.9925 29.0513C56.2267 29.0518 56.4608 29.0522 56.7021 29.0527C56.9473 29.0556 57.1925 29.0585 57.4451 29.0616C57.6913 29.0617 57.9374 29.0619 58.191 29.062C60.0207 29.0729 60.0207 29.0729 60.2926 29.3448C60.316 29.7215 60.3228 30.0993 60.3229 30.4767C60.3236 30.7215 60.3243 30.9664 60.3249 31.2186C60.3245 31.4895 60.324 31.7604 60.3235 32.0395C60.3239 32.323 60.3243 32.6065 60.3248 32.8985C60.3256 33.6782 60.3254 34.4578 60.3247 35.2375C60.3241 36.0517 60.3246 36.8659 60.325 37.6802C60.3254 39.0478 60.3249 40.4154 60.3237 41.783C60.3224 43.3662 60.3228 44.9495 60.3242 46.5327C60.3252 47.8898 60.3254 49.2468 60.3248 50.6039C60.3244 51.4154 60.3243 52.2269 60.3251 53.0384C60.3257 53.9426 60.3248 54.8469 60.3235 55.7511C60.324 56.0219 60.3245 56.2928 60.3249 56.5719C60.3239 56.9392 60.3239 56.9392 60.3229 57.3139C60.3228 57.5279 60.3227 57.742 60.3226 57.9626C60.2926 58.4457 60.2926 58.4457 60.0541 58.6843C59.1861 58.7443 58.315 58.7284 57.4451 58.729C57.1999 58.7319 56.9547 58.7348 56.7021 58.7378C56.4679 58.7383 56.2338 58.7388 55.9925 58.7392C55.6688 58.7407 55.6688 58.7407 55.3385 58.7422C54.8064 58.6843 54.8064 58.6843 54.3293 58.2072C54.2693 57.7028 54.2693 57.7028 54.2687 57.0664C54.2674 56.8256 54.266 56.5847 54.2647 56.3366C54.2656 56.0714 54.2666 55.8063 54.2676 55.533C54.2668 55.2545 54.2659 54.9761 54.2651 54.6891C54.2633 53.9243 54.2637 53.1594 54.2652 52.3946C54.2664 51.5951 54.2653 50.7956 54.2646 49.9961C54.2637 48.6534 54.2649 47.3107 54.2671 45.968C54.2697 44.4144 54.2689 42.8608 54.2663 41.3072C54.2641 39.9747 54.2638 38.6421 54.265 37.3096C54.2658 36.5131 54.2659 35.7167 54.2643 34.9202C54.2631 34.0326 54.2649 33.1451 54.2676 32.2575C54.2666 31.9923 54.2657 31.7271 54.2647 31.4539C54.266 31.2131 54.2674 30.9723 54.2687 30.7242C54.2689 30.5142 54.2691 30.3041 54.2693 30.0877C54.3572 29.3494 54.6047 29.1282 55.3385 29.0483ZM55.7605 30.5375C55.7605 39.4323 55.7605 48.3272 55.7605 57.4916C56.8625 57.4916 57.9645 57.4916 59.1 57.4916C59.1 48.5967 59.1 39.7019 59.1 30.5375C57.9979 30.5375 56.8959 30.5375 55.7605 30.5375Z" fill="white"/>
<path d="M46.1872 36.3566C46.195 34.077 47.0485 34.5493 49.0671 34.548C49.3122 34.5451 49.5578 34.5422 49.8103 34.5392C50.161 34.5385 50.1612 34.538 50.5193 34.5373C50.7351 34.5363 50.9512 34.5354 51.1736 34.5343C51.7055 34.5923 51.7055 34.5926 52.1823 35.0695C52.2298 35.8001 52.2472 36.5095 52.2439 37.2404C52.2447 37.4653 52.2459 37.6903 52.2468 37.922C52.2489 38.6682 52.2474 39.4142 52.2458 40.1603C52.2461 40.6771 52.2472 41.1943 52.2478 41.7111C52.2485 42.7955 52.2471 43.8806 52.2448 44.965C52.2421 46.3575 52.2439 47.7503 52.2468 49.1427C52.2485 50.2104 52.248 51.2782 52.2468 52.3459C52.2465 52.8592 52.2467 53.3726 52.2478 53.8859C52.249 54.6026 52.2465 55.3196 52.2439 56.0363C52.2448 56.2502 52.2458 56.4644 52.2468 56.6847C52.2367 58.1523 52.237 58.1526 51.7058 58.6838C51.1737 58.7417 51.1733 58.7424 50.5193 58.7394C50.2853 58.739 50.0513 58.7379 49.8103 58.7375C49.5652 58.7346 49.3196 58.7317 49.0671 58.7287C48.821 58.7285 48.5746 58.7288 48.321 58.7287C46.4914 58.7179 46.4914 58.7174 46.2195 58.4455C46.1955 57.7136 46.1866 56.9871 46.1882 56.2551C46.1878 56.0251 46.1877 55.7947 46.1872 55.5578V51.6799C46.1869 50.5706 46.1871 49.461 46.1882 48.3517C46.1896 46.9263 46.1887 45.5008 46.1872 44.0754C46.1864 42.9836 46.1866 41.8917 46.1872 40.8C46.1874 40.2742 46.1868 39.7476 46.1863 39.2218C46.1857 38.4886 46.1869 37.7549 46.1882 37.0217C46.1877 36.8022 46.1877 36.5827 46.1872 36.3566ZM47.4118 36.0236V57.2531H50.7517V36.0236H47.4118Z" fill="white"/>
<path d="M30.9755 39.57C31.2212 39.5697 31.4669 39.5694 31.72 39.5691C32.1079 39.5705 32.1079 39.5705 32.5036 39.5719C32.7622 39.571 33.0208 39.57 33.2872 39.5691C33.5329 39.5694 33.7786 39.5697 34.0317 39.57C34.3723 39.5704 34.3723 39.5704 34.7198 39.5708C35.2467 39.6017 35.2467 39.6017 35.4853 39.8402C35.5092 40.4195 35.5177 40.992 35.5161 41.5715C35.5165 41.7526 35.517 41.9337 35.5174 42.1203C35.5184 42.7219 35.5177 43.3235 35.5169 43.9251C35.5171 44.3413 35.5173 44.7576 35.5176 45.1738C35.518 46.0473 35.5175 46.9208 35.5164 47.7943C35.515 48.9165 35.5158 50.0387 35.5172 51.1609C35.5181 52.0208 35.5178 52.8806 35.5172 53.7404C35.517 54.1543 35.5172 54.5682 35.5178 54.9821C35.5184 55.5596 35.5175 56.1371 35.5161 56.7145C35.5166 56.8873 35.5171 57.06 35.5176 57.238C35.5125 58.4185 35.5125 58.4185 35.2467 58.6843C34.8423 58.708 34.4369 58.7155 34.0317 58.716C33.786 58.7163 33.5403 58.7166 33.2872 58.7169C32.8993 58.7155 32.8993 58.7155 32.5036 58.7141C32.245 58.715 31.9864 58.7159 31.72 58.7169C31.4743 58.7166 31.2286 58.7163 30.9755 58.716C30.7484 58.7157 30.5214 58.7154 30.2874 58.7151C29.7605 58.6843 29.7605 58.6843 29.522 58.4457C29.498 57.8664 29.4895 57.2939 29.4911 56.7145C29.4907 56.5334 29.4903 56.3523 29.4898 56.1657C29.4888 55.5641 29.4895 54.9625 29.4903 54.3609C29.4901 53.9447 29.4899 53.5284 29.4896 53.1122C29.4892 52.2387 29.4897 51.3652 29.4909 50.4917C29.4922 49.3695 29.4914 48.2473 29.49 47.125C29.4891 46.2652 29.4894 45.4054 29.49 44.5456C29.4902 44.1316 29.49 43.7177 29.4894 43.3038C29.4888 42.7264 29.4898 42.1489 29.4911 41.5715C29.4906 41.3987 29.4901 41.226 29.4896 41.048C29.4957 39.6333 29.5838 39.5717 30.9755 39.57ZM30.7146 40.7944C30.7146 46.3045 30.7146 51.8145 30.7146 57.4916C31.8954 57.4916 33.0761 57.4916 34.2926 57.4916C34.2926 51.9815 34.2926 46.4714 34.2926 40.7944C33.1119 40.7944 31.9311 40.7944 30.7146 40.7944Z" fill="white"/>
<path d="M37.8405 45.1632C37.9136 43.8307 39.6937 44.3279 40.7184 44.3272C40.9635 44.3243 41.209 44.3214 41.4615 44.3184C41.8124 44.3177 41.8125 44.3182 42.1705 44.3174C42.3864 44.3165 42.6025 44.3155 42.8248 44.3145C43.3569 44.3725 43.3566 44.3727 43.8336 44.8497C43.8942 45.4107 43.895 45.4108 43.8961 46.1221C43.8976 46.388 43.8985 46.6539 43.9 46.9278C43.8991 47.2159 43.8981 47.504 43.8971 47.8008C43.8976 48.0955 43.8986 48.3908 43.899 48.6944C43.8995 49.4785 43.8968 50.2629 43.8942 51.0469C43.8932 51.5281 43.8945 52.0092 43.8961 52.4903C43.8991 53.4118 43.8985 54.3334 43.8971 55.2549C43.8981 55.5432 43.899 55.832 43.9 56.129C43.8985 56.3948 43.8977 56.6608 43.8961 56.9346C43.8955 57.2865 43.8947 57.2867 43.8942 57.6456C43.8336 58.2068 43.8341 58.2076 43.3571 58.6846C42.825 58.7426 42.8246 58.7423 42.1705 58.7393C41.8196 58.7386 41.8194 58.7381 41.4615 58.7374C41.2164 58.7344 40.9709 58.7316 40.7184 58.7286C40.4723 58.7284 40.2259 58.7287 39.9723 58.7286C38.1427 58.7178 38.1427 58.7173 37.8707 58.4454C37.8471 58.0149 37.8398 57.5835 37.8395 57.1524C37.8387 56.8762 37.8383 56.6 37.8375 56.3155C37.838 56.0149 37.838 55.7141 37.8385 55.4044C37.8382 54.9452 37.8389 54.9451 37.8385 54.4766C37.8381 53.8279 37.8384 53.1791 37.8395 52.5303C37.8408 51.6969 37.8399 50.8628 37.8385 50.0294C37.8374 49.237 37.8379 48.4447 37.8385 47.6524C37.838 47.3518 37.838 47.051 37.8375 46.7413C37.8383 46.4651 37.8387 46.1889 37.8395 45.9044C37.8398 45.5376 37.8402 45.5373 37.8405 45.1632ZM39.0631 45.8038V57.253H42.403V45.8038H39.0631Z" fill="white"/>
<path d="M22.8365 48.1338C23.0707 48.1343 23.3053 48.1343 23.5465 48.1348C23.7916 48.1377 24.0371 48.1415 24.2897 48.1445C24.5356 48.1447 24.7815 48.1444 25.0348 48.1445C26.8644 48.1554 26.8644 48.1558 27.1364 48.4277C27.1605 49.1649 27.1702 49.8966 27.1686 50.6338C27.1689 50.9659 27.1692 50.966 27.1696 51.3047C27.1697 51.7739 27.1686 52.2437 27.1676 52.7129C27.1663 53.4336 27.168 54.1543 27.1696 54.875C27.1694 55.3297 27.169 55.7846 27.1686 56.2393C27.1691 56.4564 27.1691 56.6737 27.1696 56.8975C27.1638 58.4183 27.164 58.4186 26.8981 58.6846C26.0302 58.7446 25.1593 58.728 24.2897 58.7285C24.0446 58.7314 23.799 58.7353 23.5465 58.7383C23.3124 58.7387 23.0778 58.7388 22.8365 58.7393C22.5128 58.7407 22.5125 58.7407 22.1823 58.7422C21.6505 58.6843 21.6504 58.684 21.1735 58.207C21.1257 57.494 21.1066 56.8031 21.11 56.0898C21.1095 55.88 21.1095 55.6702 21.109 55.4541C21.1087 55.0098 21.109 54.5654 21.111 54.1211C21.1135 53.4395 21.1111 52.7578 21.108 52.0762C21.1083 51.6452 21.109 51.2142 21.11 50.7832L21.1071 50.1621C21.1223 48.2465 21.1224 48.2463 22.1823 48.1309C22.506 48.1323 22.5063 48.1323 22.8365 48.1338ZM22.6041 49.6201V57.2529H25.944V49.6201H22.6041Z" fill="white"/>
<path d="M55.6862 21.9201C56.6234 21.3897 57.0855 21.3024 58.1461 21.4729C58.8882 21.8649 59.4074 22.1959 59.9049 22.8742C60.22 23.9456 60.1692 24.5985 59.6364 25.5881C58.8883 26.5023 58.8883 26.5026 58.1461 26.7209C57.3119 26.7934 56.8178 26.7686 56.0533 26.4133C55.2524 26.1499 55.252 26.1504 54.4821 26.6672C54.2089 26.8691 53.9393 27.0759 53.6735 27.2873C52.2232 28.3904 52.223 28.3908 51.7057 28.3908C51.7303 28.676 51.7546 28.9613 51.7799 29.2551C51.7842 30.0698 51.6605 30.49 51.1393 31.1184C50.5131 31.7296 50.5128 31.7304 50.0358 31.969C49.8731 31.9634 49.7102 31.9571 49.5426 31.9514C48.5143 31.9289 47.8799 31.9997 47.1002 32.7053C46.5432 33.3974 46.0251 34.1121 45.5035 34.8313C45.2821 35.0954 45.0576 35.357 44.8307 35.6164C44.7193 35.7442 44.6076 35.8725 44.4928 36.0041C44.3836 36.1286 44.2742 36.2528 44.1617 36.3811C43.5503 37.0531 43.5508 37.0537 43.1188 37.6936C43.1975 37.9296 43.276 38.1662 43.3571 38.4094C43.4451 39.5988 43.4002 40.3295 42.6412 41.2717C41.9977 41.776 41.5539 41.9694 40.7477 42.1066C39.7452 41.9429 39.2965 41.5041 38.5865 40.7941C38.1846 40.2008 38.1115 39.8826 38.0739 39.1604C37.8411 38.2999 37.5431 38.0519 36.7936 37.593C36.6522 37.513 36.5106 37.4332 36.3649 37.3508C36.226 37.2642 36.087 37.1773 35.944 37.0881C35.1549 36.6125 35.1547 36.6127 34.2604 36.5598C34.1138 36.6191 33.967 36.6784 33.816 36.7395C33.2775 36.8077 32.7382 36.8586 32.1979 36.9104C31.1252 37.0463 30.6061 37.2336 29.8551 38.0412C29.6991 38.2081 29.5432 38.3751 29.3824 38.5471C29.2219 38.7228 29.0615 38.8992 28.8961 39.0803C28.7338 39.2532 28.5711 39.4256 28.4039 39.6037C27.3698 40.6859 27.3696 40.6862 26.6598 41.9865C26.709 42.2522 26.7575 42.5185 26.8082 42.7922C26.8976 43.6566 26.8983 43.6568 26.4811 44.4465C25.95 45.0808 25.5691 45.5097 24.7311 45.6447C23.7562 45.6614 23.2195 45.6487 22.3658 45.133C21.7601 44.4705 21.6655 44.004 21.5465 43.1203C21.6677 42.0814 21.9019 41.6104 22.6031 40.8537C23.2343 40.4609 23.5358 40.5687 24.2594 40.6897C25.0598 40.7579 25.5219 40.6984 26.1627 40.2004C27.1502 39.2542 28.0433 38.2233 28.9156 37.1711C29.2837 36.7395 29.2836 36.7388 29.6871 36.3615C30.0624 36.0273 30.0625 36.0271 30.027 35.4299C30.0079 35.2077 29.989 34.985 29.9694 34.7561C29.9495 33.8759 29.9391 33.2632 30.4615 32.5354C31.2725 31.9064 31.777 31.6909 32.7916 31.6467C33.6262 31.7747 34.1137 32.1076 34.7115 32.6916C35.2365 33.5237 35.1407 34.3629 35.0084 35.3078C35.1809 35.3705 35.3532 35.4336 35.5309 35.4983C36.2119 35.79 36.7659 36.1465 37.3785 36.5608C38.2808 37.1555 38.2813 37.1548 39.317 37.052C39.548 36.9487 39.7792 36.8458 40.0172 36.7395C40.7425 36.7598 41.4492 36.8601 42.1647 36.9777C42.2613 36.7676 42.2614 36.7675 42.36 36.5529C42.6399 36.0271 42.9392 35.6349 43.3326 35.1897C43.4667 35.0367 43.6008 34.8834 43.7389 34.7258C43.8784 34.5686 44.018 34.4112 44.1617 34.2492C44.5691 33.7869 44.9757 33.324 45.3795 32.8586C45.6887 32.5058 46.0073 32.161 46.3268 31.8176C46.7983 31.0977 46.7305 30.7862 46.5621 29.9563C46.397 28.7568 46.3973 28.7565 46.6871 28.1496C47.1123 27.6421 47.5336 27.2562 48.1276 26.9592C49.8597 26.9024 49.8599 26.9022 50.5875 27.1369C51.5411 27.227 52.1695 26.7877 52.943 26.2883C53.1697 26.1435 53.1696 26.1431 53.401 25.9953C54.095 25.5138 54.5008 25.2053 54.8405 24.4182C54.8958 24.0139 54.9389 23.6074 54.9674 23.2004C55.0594 22.5644 55.2155 22.3485 55.6862 21.9201ZM25.2281 41.9865C24.424 41.7929 23.8374 41.5865 23.0963 42.0168C22.7569 42.6157 22.7416 42.978 22.8434 43.6565C23.1266 44.0887 23.1262 44.0892 23.5582 44.3723C24.4524 44.484 24.6963 44.4088 25.4674 43.8947C25.5286 43.1605 25.5607 42.6516 25.2281 41.9865ZM40.9869 37.9768C40.2564 37.932 40.2555 37.9323 39.8082 38.1858C39.5402 38.6474 39.54 38.6479 39.4655 39.3781C39.54 40.0787 39.5402 40.0789 40.0172 40.5559C40.7452 40.6014 41.2666 40.6469 41.9254 40.3176C42.1043 39.4977 42.105 39.4973 42.1647 38.6477C41.6877 38.1707 41.6871 38.1704 40.9869 37.9768ZM33.3385 33.1613C32.6104 33.1158 32.0892 33.0702 31.4303 33.3996C31.2365 34.2047 31.2367 34.2049 31.192 35.0695C31.4602 35.5315 31.4599 35.5321 31.9069 35.7854C32.5877 35.8875 32.9435 35.8819 33.5319 35.5168C33.8151 35.0696 33.8157 35.0695 33.8903 34.3391C33.8157 33.6384 33.8155 33.6384 33.3385 33.1613ZM49.3346 28.2121C48.6046 28.1525 48.6045 28.1523 47.8893 28.6291C47.8639 28.913 47.8387 29.1886 47.8141 29.4641C47.8886 30.2987 47.8891 30.2988 48.3658 30.7756C49.0814 30.8352 49.0819 30.8352 49.7975 30.7756C50.4044 30.1687 50.4049 30.1683 50.5133 28.8674C50.0362 28.3903 50.0353 28.391 49.3346 28.2121ZM57.5641 22.7258C56.5995 22.6318 56.2978 22.9415 56.0289 23.844C55.9991 24.5741 55.9992 24.5745 56.2526 25.0217C56.7145 25.2899 56.7147 25.29 57.4449 25.3645C58.1455 25.2899 58.1458 25.2896 58.6227 24.8127C58.6823 24.0971 58.6823 24.0967 58.6227 23.3811C58.1459 22.9043 58.1454 22.9047 57.5641 22.7258Z" fill="white"/>
</svg>
