<svg width="81" height="80" viewBox="0 0 81 80" fill="none" xmlns="http://www.w3.org/2000/svg">
<rect x="0.333374" width="80" height="80" rx="40" fill="#3B3946"/>
<path d="M43.8453 27.0721C45.1042 26.3454 46.4091 26.4526 47.7428 26.9617C48.9459 27.5474 49.6477 28.5391 50.236 29.7156C50.4535 31.8344 49.9615 33.1302 48.693 34.784C48.8341 34.8456 48.9753 34.907 49.1207 34.9705C51.1567 35.9141 52.5226 37.178 53.5406 39.1902C53.8986 40.1789 54.0322 41.0053 53.9811 42.0545H53.1002C53.0679 41.937 53.0349 41.8191 53.0016 41.698C52.3414 39.5053 51.3691 37.726 49.3541 36.5467C47.5402 35.5947 45.8417 35.5447 43.8453 35.8855C41.8596 36.6011 40.359 37.7121 39.4391 39.6306C39.1749 40.4296 38.9635 41.2339 38.778 42.0545C38.351 42.1784 38.3506 42.1788 37.8961 42.2752C37.8235 42.2025 37.7512 42.1293 37.6764 42.0545C37.7429 39.9619 38.5235 38.2268 39.9362 36.6785C40.8972 35.7972 42.0144 35.1275 43.1852 34.5633C43.0171 34.4089 42.8485 34.2546 42.6754 34.0955C41.6235 32.9702 41.2803 32.0153 41.3307 30.4929C41.5817 28.9613 42.6357 27.9472 43.8453 27.0721ZM46.7106 27.7332C45.6302 27.5648 44.8752 27.6911 43.983 28.325C43.0801 29.1205 42.5583 29.7474 42.4547 30.9685C42.5597 32.0813 42.8845 32.6405 43.6256 33.4617C44.6996 34.3648 45.3612 34.4532 46.7106 34.3426C47.7025 34.0118 48.2884 33.5155 48.8727 32.6492C49.2809 31.5106 49.3295 30.4734 48.9137 29.3299C48.2749 28.6112 47.5965 28.1125 46.7106 27.7332Z" fill="white"/>
<path d="M46.0491 22.844C49.4753 22.8661 52.054 24.0844 54.5451 26.4848C56.905 29.0599 57.7087 31.8738 57.5962 35.2966C57.5084 36.6722 57.1397 37.9115 56.6254 39.1904C56.9162 39.1904 57.2071 39.1904 57.5067 39.1904C57.5067 39.4813 57.5067 39.7721 57.5067 40.0718C56.5863 40.4224 55.8472 40.5593 54.8626 40.5124C54.5492 39.67 54.369 38.9893 54.422 38.0887C54.8582 37.9797 54.8582 37.9797 55.3033 37.8684C55.376 38.0138 55.4487 38.1592 55.5237 38.3091C56.4684 36.1678 56.5928 33.3107 55.8404 31.0792C54.6207 28.2544 52.8739 26.1246 50.0014 24.8822C48.2237 24.2595 46.3732 24.1274 44.5067 23.987C44.3828 23.5601 44.3828 23.5601 44.2864 23.1057C44.7136 22.6784 45.484 22.8468 46.0491 22.844Z" fill="white"/>
<path d="M30.9117 44.0318C33.7521 42.3351 35.6646 41.4958 38.8326 42.7847C40.0377 43.2569 41.1967 43.6786 42.4683 43.9419C43.5936 44.2043 44.5205 44.5779 45.1675 45.5806C45.2912 46.2223 45.2472 46.683 45.1675 47.3433C45.9899 47.0347 46.7346 46.6592 47.4966 46.2232C47.7306 46.0904 47.9646 45.9576 48.2056 45.8208C48.6906 45.544 49.176 45.2672 49.6607 44.9898C54.2317 42.3986 54.2317 42.3977 55.9644 42.7154C56.6412 43.0473 57.092 43.4049 57.5064 44.0376C57.6985 44.8099 57.7342 45.477 57.5064 46.2417C56.6572 47.2918 55.5498 47.9227 54.4078 48.6099C54.2102 48.7304 54.0127 48.851 53.8091 48.9751C53.3728 49.2409 52.9357 49.5056 52.4986 49.77C51.857 50.1589 51.2173 50.5508 50.5777 50.9429C50.0264 51.2808 49.4742 51.6176 48.9224 51.9546C48.6533 52.1191 48.3837 52.284 48.1148 52.4488C43.4501 55.3046 43.4496 55.3052 41.0005 54.7368C40.043 54.4819 39.0998 54.1828 38.1558 53.8824C37.3993 53.6458 36.6372 53.4317 35.8726 53.2232C35.4862 53.1154 35.4856 53.1154 35.0914 53.0054C34.2274 52.8206 33.419 52.6663 32.608 53.0718C32.6852 53.2217 32.7628 53.3715 32.8423 53.5259C33.1213 54.4001 33.1209 54.8386 32.8287 55.7154C31.999 56.5061 31.1052 56.9554 30.0191 57.2993C29.3033 57.2581 29.3029 57.2577 28.7554 56.7857C28.2092 56.165 27.8267 55.5812 27.4331 54.856C27.2964 54.6067 27.159 54.357 27.0181 54.1001C26.8754 53.8355 26.7329 53.5709 26.5904 53.3062C26.3704 52.9014 26.1498 52.4967 25.9292 52.0923C25.7848 51.8275 25.6406 51.5625 25.4966 51.2974C25.106 50.5809 24.7045 49.8738 24.2808 49.1763C24.1964 49.0366 24.1119 48.8964 24.0249 48.7525C23.813 48.4059 23.5973 48.0614 23.3814 47.7173C23.0635 46.9546 23.0826 46.5788 23.354 45.8003C24.1485 45.043 25.1592 44.3605 26.2583 44.1792C26.9216 44.2419 27.2808 44.439 27.7476 44.9058C27.9814 45.3597 27.981 45.36 27.981 45.8003C28.1163 45.7182 28.2518 45.6359 28.3912 45.5513C29.0154 45.1736 29.6413 44.7985 30.2671 44.4234C30.4798 44.2942 30.6925 44.1649 30.9117 44.0318ZM26.8794 45.5806C26.2185 45.3603 26.2186 45.3601 25.7203 45.5796C25.5386 45.6875 25.3624 45.7923 25.1861 45.897C24.8682 46.0831 24.5509 46.2706 24.2359 46.4615C24.2359 46.9483 24.2357 46.9484 24.8628 47.9937C25.8396 49.6047 26.7764 51.2367 27.6968 52.8804C27.8402 53.1373 27.9795 53.3869 28.1187 53.6363C28.5045 54.3274 28.8909 55.0189 29.2759 55.7105C29.3602 55.8621 29.4421 56.0096 29.524 56.1568C30.1847 56.1568 30.1852 56.1567 30.6353 55.939C30.7958 55.8399 30.9512 55.7432 31.107 55.647C31.5847 55.3604 31.5854 55.3608 31.9478 55.0552C31.9478 54.3369 31.7688 54.0365 31.399 53.44C30.767 52.4405 30.1556 51.4303 29.5787 50.398C29.4395 50.1447 29.3045 49.8987 29.1695 49.6529C28.8925 49.1494 28.6155 48.646 28.3394 48.1421C28.2017 47.8869 28.0678 47.6388 27.9341 47.3911C27.7397 47.0375 27.7398 47.0373 27.5494 46.6909C27.2065 46.0589 27.2061 46.0587 26.8794 45.5806ZM37.0337 43.3667C34.6416 42.6281 32.5799 44.3446 30.5845 45.5113C30.4391 45.595 30.2929 45.6789 30.1431 45.7652C29.2879 46.2563 29.2881 46.2567 28.8628 47.1226C29.0718 47.6634 29.0716 47.6636 29.4039 48.2398C29.5218 48.4553 29.6397 48.671 29.7613 48.8931C29.8872 49.1177 30.0134 49.3424 30.1431 49.5738C30.3282 49.9133 30.3283 49.9139 30.5171 50.2603C31.0523 51.3981 31.0531 51.3976 31.9478 52.19C32.0976 52.0765 32.2475 51.9632 32.4019 51.8462C33.3376 51.3883 34.0655 51.7226 35.0318 51.9702C35.2734 52.0292 35.5153 52.0882 35.7642 52.149C36.5812 52.3483 37.3976 52.5515 38.2134 52.7554C38.495 52.8251 38.7769 52.8945 39.0669 52.9663C39.4686 53.0666 39.4686 53.0672 39.8785 53.1695C40.122 53.2301 40.3658 53.2906 40.6167 53.3531C41.2015 53.5126 41.2015 53.5126 41.6421 53.7329C44.1436 54.0572 46.3904 52.2452 48.4312 50.9781C48.8692 50.7083 49.3075 50.4391 49.7456 50.1695C50.0809 49.9626 50.0814 49.9625 50.4234 49.7515C51.1345 49.3153 51.8488 48.8841 52.564 48.4546C52.7967 48.3145 53.0293 48.1742 53.2691 48.0298C53.7191 47.7591 54.1697 47.4894 54.6206 47.2202C54.8226 47.0983 55.0249 46.9768 55.233 46.8511C55.4118 46.7438 55.5907 46.6364 55.7749 46.5259C56.215 46.2692 56.2148 46.2685 56.4048 45.8003C56.5034 44.8943 56.5037 44.8941 56.1265 44.107C55.6503 43.7466 55.451 43.7426 54.8628 43.8042C54.0246 43.9422 53.3977 44.1949 52.6597 44.6128C52.3427 44.7907 52.3425 44.7907 52.0191 44.9722C51.7942 45.1 51.5692 45.2282 51.3374 45.3599C50.8621 45.6254 50.3862 45.8905 49.9107 46.1558C49.4268 46.4273 48.9433 46.6995 48.4595 46.9712C47.9705 47.2458 47.4809 47.52 46.9917 47.7945C46.7787 47.9141 46.5657 48.0345 46.3462 48.1577C44.7939 49.0197 42.9741 48.8688 41.2896 48.4185C40.6328 48.2272 39.9823 48.0182 39.3326 47.8042C38.5878 47.5308 38.5876 47.5304 37.897 47.563V46.6822C38.3559 46.7876 38.8151 46.8929 39.274 46.9986C39.5295 47.0573 39.7851 47.1167 40.0484 47.1773C40.4464 47.27 40.8441 47.3653 41.2388 47.4712C42.1131 47.6707 43.065 47.759 43.8599 47.3013C44.1103 46.8957 44.1101 46.8951 44.0523 46.3511C43.7947 45.6644 43.589 45.519 42.9644 45.1392C42.4202 44.9803 41.8918 44.8456 41.3394 44.7261C39.8482 44.383 38.459 43.9287 37.0337 43.3667Z" fill="white"/>
<path d="M43.1847 23.3259C43.2575 23.6167 43.3302 23.9076 43.4051 24.2072C43.2372 24.2714 43.0694 24.3356 42.8964 24.4017C41.5429 24.9391 40.3559 25.5136 39.1833 26.3805C38.778 26.6309 38.778 26.6309 38.1169 26.6309C38.1784 25.8931 38.2584 25.6006 38.8167 25.0955C39.4459 24.6429 40.0695 24.2811 40.761 23.9318C40.9837 23.817 41.2064 23.7023 41.4358 23.5841C42.0797 23.3272 42.5006 23.2705 43.1847 23.3259Z" fill="white"/>
<path d="M36.7949 27.0717C37.2494 27.1681 37.2494 27.1681 37.6763 27.292C37.5336 28.1359 37.1358 28.7305 36.671 29.4403C36.5298 29.6573 36.3887 29.8743 36.2432 30.0979C36.0801 30.345 36.0801 30.345 35.9136 30.5971C35.6227 30.5244 35.3319 30.4517 35.0322 30.3767C35.1558 29.5057 35.4117 28.9475 35.9136 28.2284C36.0317 28.0569 36.1499 27.8853 36.2716 27.7086C36.5746 27.292 36.5746 27.292 36.7949 27.0717Z" fill="white"/>
<path d="M34.8118 31.2582C35.0299 31.3309 35.2481 31.4036 35.4728 31.4785C35.4788 31.7952 35.483 32.112 35.4866 32.4287C35.4891 32.6051 35.4917 32.7815 35.4943 32.9632C35.4728 33.4616 35.4728 33.4616 35.2525 34.1226C34.8889 34.0499 34.5253 33.9772 34.1508 33.9022C34.0857 32.7956 34.154 32.1626 34.8118 31.2582Z" fill="white"/>
<path d="M34.5914 35.0039C35.0597 35.2105 35.0597 35.2105 35.4728 35.4446C35.4728 36.0263 35.4728 36.608 35.4728 37.2073C35.1819 37.28 34.8911 37.3527 34.5914 37.4276C34.3014 36.6301 34.1508 36.0845 34.1508 35.2242C34.2962 35.1515 34.4416 35.0788 34.5914 35.0039Z" fill="white"/>
<path d="M26.1222 46.6681C26.3881 46.6749 26.3881 46.6749 26.6593 46.6819C26.797 47.095 26.797 47.095 26.8797 47.5632C26.7342 47.7086 26.5888 47.8541 26.439 48.0039C25.9708 47.9213 25.9708 47.9213 25.5576 47.7836C25.4337 47.3567 25.4337 47.3567 25.3373 46.9022C25.5576 46.6819 25.5576 46.6819 26.1222 46.6681Z" fill="white"/>
<path d="M35.2526 38.0886C35.707 38.185 35.707 38.185 36.1339 38.309C36.1339 38.7452 36.1339 39.1815 36.1339 39.631C35.8431 39.5583 35.5522 39.4856 35.2526 39.4107C35.1684 39.0457 35.0953 38.6781 35.0322 38.309C35.1049 38.2363 35.1777 38.1635 35.2526 38.0886Z" fill="white"/>
</svg>
