<svg width="78" height="78" viewBox="0 0 78 78" fill="none" xmlns="http://www.w3.org/2000/svg">
<rect x="0.5" y="0.5" width="77" height="77" rx="19.5" stroke="#3B3946"/>
<path d="M43.9067 28.2798C44.5467 29.2265 44.92 30.3598 44.92 31.5865C44.9067 34.7865 42.3867 37.3865 39.2133 37.4932C39.08 37.4798 38.92 37.4798 38.7733 37.4932C35.8267 37.3998 33.44 35.1465 33.12 32.2665C32.7333 28.8398 35.5467 25.6665 38.9867 25.6665" stroke="white" stroke-width="1.5" stroke-linecap="round" stroke-linejoin="round"/>
<path d="M32.32 42.4135C29.0933 44.5735 29.0933 48.0935 32.32 50.2402C35.9867 52.6935 42 52.6935 45.6667 50.2402C48.8933 48.0802 48.8933 44.5602 45.6667 42.4135C42.0267 39.9735 36.0133 39.9735 32.32 42.4135Z" stroke="white" stroke-width="1.5" stroke-linecap="round" stroke-linejoin="round"/>
</svg>
