<svg width="78" height="78" viewBox="0 0 78 78" fill="none" xmlns="http://www.w3.org/2000/svg">
<rect x="0.5" y="0.5" width="77" height="77" rx="19.5" stroke="#3B3946"/>
<path d="M25.6666 40.3465V42.9998C25.6666 49.6665 28.3333 52.3332 35 52.3332H43C49.6666 52.3332 52.3333 49.6665 52.3333 42.9998V34.9998C52.3333 28.3332 49.6666 25.6665 43 25.6665H35C28.3333 25.6665 25.6666 28.3332 25.6666 34.9998" stroke="white" stroke-width="1.5" stroke-linecap="round" stroke-linejoin="round"/>
<path d="M46.3333 38.4268V45.0002C46.3333 46.4668 45.1467 47.6668 43.6667 47.6668C42.2 47.6668 41 46.4668 41 45.0002V33.0002C41 31.5335 42.2 30.3335 43.6667 30.3335C45.1333 30.3335 46.3333 31.5335 46.3333 33.0002" stroke="white" stroke-width="1.5" stroke-linecap="round" stroke-linejoin="round"/>
<path d="M34.3333 47.6665C35.8 47.6665 37 46.4665 37 44.9998V40.3332C37 38.8665 35.8 37.6665 34.3333 37.6665C32.8666 37.6665 31.6666 38.8665 31.6666 40.3332V44.9998C31.6666 46.4665 32.8533 47.6665 34.3333 47.6665Z" stroke="white" stroke-width="1.5" stroke-linecap="round" stroke-linejoin="round"/>
</svg>
