<svg width="16" height="17" viewBox="0 0 16 17" fill="none" xmlns="http://www.w3.org/2000/svg">
<path d="M6.00004 15.1668H10C13.3334 15.1668 14.6667 13.8335 14.6667 10.5002V6.50016C14.6667 3.16683 13.3334 1.8335 10 1.8335H6.00004C2.66671 1.8335 1.33337 3.16683 1.33337 6.50016V10.5002C1.33337 13.8335 2.66671 15.1668 6.00004 15.1668Z" stroke="white" stroke-linecap="round" stroke-linejoin="round"/>
<path d="M7.99996 10.8332C9.28862 10.8332 10.3333 9.7885 10.3333 8.49984C10.3333 7.21117 9.28862 6.1665 7.99996 6.1665C6.71129 6.1665 5.66663 7.21117 5.66663 8.49984C5.66663 9.7885 6.71129 10.8332 7.99996 10.8332Z" stroke="white" stroke-width="1.5" stroke-linecap="round" stroke-linejoin="round"/>
<path d="M11.7575 5.16683H11.7652" stroke="white" stroke-width="1.5" stroke-linecap="round" stroke-linejoin="round"/>
</svg>
